<svg id="Capa_1" enable-background="new 0 0 512 512" height="12px" viewBox="0 0 512 512" width="12px" xmlns="http://www.w3.org/2000/svg"><g><path d="m497 301h-19.843l-50.995-124.988c14.663-7.425 24.838-22.481 24.838-40.012 0-8.291-6.709-15-15-15s-15 6.709-15 15c0 8.276-6.724 15-15 15-7.808 0-11.646-2.871-19.6-9.36-10.664-8.702-25.283-20.64-55.4-20.64-20.438 0-34.109 5.581-43.383 13.039-4.644-4.596-10.342-8.038-16.617-10.276v-5.526c17.422-6.213 30-22.707 30-42.237 0-19.175-22.837-55.69-32.651-69.914-5.625-8.115-19.072-8.115-24.697 0-9.815 14.224-32.652 50.739-32.652 69.914 0 19.53 12.578 36.024 30 42.237v5.526c-6.275 2.238-11.973 5.68-16.617 10.276-9.274-7.458-22.945-13.039-43.383-13.039-30.117 0-44.736 11.938-55.4 20.64-7.954 6.489-11.792 9.36-19.6 9.36-8.276 0-15-6.724-15-15 0-8.291-6.709-15-15-15s-15 6.709-15 15c0 17.531 10.175 32.587 24.838 40.012l-50.995 124.988h-19.843c-8.291 0-15 6.709-15 15 0 41.353 33.647 75 75 75h61c41.353 0 75-33.647 75-75 0-8.291-6.709-15-15-15h-19.843l-49.75-124.376c7.359-3.248 13.204-7.689 18.162-11.737 9.126-7.456 17.007-13.887 36.431-13.887 27.393 0 29.81 12.656 30 15.366.002.106.062.192.068.298.286 19.235 12.713 35.433 29.932 41.572v216.526c-17.422 6.213-30 22.707-30 42.237 0 8.276-6.724 15-15 15h-30c-8.291 0-15 6.709-15 15s6.709 15 15 15h180c8.291 0 15-6.709 15-15s-6.709-15-15-15h-30c-8.276 0-15-6.724-15-15 0-19.53-12.578-36.024-30-42.237v-216.525c17.241-6.149 29.681-22.377 29.94-41.644.004-.06.042-.108.046-.168.175-2.564 2.402-15.425 30.014-15.425 19.424 0 27.305 6.431 36.431 13.887 4.958 4.048 10.803 8.489 18.162 11.737l-49.75 124.376h-19.843c-8.291 0-15 6.709-15 15 0 41.353 33.647 75 75 75h61c41.353 0 75-33.647 75-75 0-8.291-6.709-15-15-15zm-429.842 0 38.842-94.607 37.842 94.607zm301 0 37.842-94.607 38.842 94.607z"/></g></svg>